<svg width="26" height="26" xmlns="http://www.w3.org/2000/svg">

 <g>
  <title>background</title>
  <rect fill="none" id="canvas_background" height="402" width="582" y="-1" x="-1"/>
 </g>
 <g>
  <title>Layer 1</title>
  <path id="svg_1" fill="#1D1D1B" d="m22.68359,7.13574c-0.02539,-0.39551 -0.35254,-0.70312 -0.74902,-0.70312l-3.96973,0l0,-1.17285c0,-2.34864 -2.22754,-4.25977 -4.96484,-4.25977s-4.96484,1.91113 -4.96484,4.25977l0,1.17285l-3.96973,0c-0.39648,0 -0.72363,0.30761 -0.74902,0.70312l-1.06543,17.06739c-0.0127,0.20703 0.06054,0.40917 0.20215,0.56054c0.1416,0.15039 0.33984,0.23633 0.54687,0.23633l20,0c0.20703,0 0.40527,-0.08594 0.54688,-0.23633c0.1416,-0.15137 0.21484,-0.35351 0.20214,-0.56054l-1.06543,-17.06739zm-13.14843,-1.87597c0,-1.52149 1.55468,-2.75977 3.46484,-2.75977s3.46484,1.23828 3.46484,2.75977l0,1.17285l-6.92968,0l0,-1.17285zm-1.5,2.67285l0,1.6289c0,0.41407 0.33593,0.75 0.75,0.75s0.75,-0.33593 0.75,-0.75l0,-1.6289l6.92968,0l0,1.6289c0,0.41407 0.33594,0.75 0.75,0.75s0.75,-0.33593 0.75,-0.75l0,-1.6289l3.26465,0l0.64984,10.40039l-17.75866,0l0.64984,-10.40039l3.26465,0zm-4.23731,15.56738l0.26038,-4.16699l17.88354,0l0.26038,4.16699l-18.4043,0z"/>
 </g>
</svg>